<mxfile host="65bd71144e">
    <diagram id="Kz0ywYGAHpizFOXHB_ZU" name="Page-1">
        <mxGraphModel dx="644" dy="515" grid="1" gridSize="10" guides="1" tooltips="1" connect="1" arrows="1" fold="1" page="1" pageScale="1" pageWidth="827" pageHeight="1169" math="0" shadow="0">
            <root>
                <mxCell id="0"/>
                <mxCell id="1" parent="0"/>
                <mxCell id="3" value="" style="rounded=0;whiteSpace=wrap;html=1;fillColor=#FFFFFF;strokeColor=none;connectable=0;container=1;collapsible=0;recursiveResize=0;movable=0;rotatable=0;cloneable=0;deletable=0;" parent="1" vertex="1">
                    <mxGeometry x="260" y="100" width="580" height="1220" as="geometry"/>
                </mxCell>
                <mxCell id="8" style="edgeStyle=orthogonalEdgeStyle;html=1;entryX=0.5;entryY=0;entryDx=0;entryDy=0;fontSize=16;fontColor=#000000;endArrow=blockThin;endFill=1;strokeColor=#000000;strokeWidth=1;" parent="3" source="5" target="7" edge="1">
                    <mxGeometry relative="1" as="geometry"/>
                </mxCell>
                <mxCell id="61" style="edgeStyle=orthogonalEdgeStyle;shape=connector;rounded=1;html=1;exitX=0.5;exitY=1;exitDx=0;exitDy=0;entryX=0.5;entryY=0;entryDx=0;entryDy=0;labelBackgroundColor=default;fontFamily=Helvetica;fontSize=16;fontColor=#000000;endArrow=blockThin;endFill=1;strokeColor=#000000;strokeWidth=1;" edge="1" parent="3" source="5" target="59">
                    <mxGeometry relative="1" as="geometry"/>
                </mxCell>
                <mxCell id="5" value="&lt;div style=&quot;font-size: 16px&quot;&gt;&lt;div style=&quot;font-size: 16px&quot;&gt;&lt;div style=&quot;font-size: 16px&quot;&gt;&lt;div style=&quot;font-size: 16px&quot;&gt;&lt;div style=&quot;font-size: 16px&quot;&gt;古公亶父&lt;br&gt;&lt;/div&gt;&lt;/div&gt;&lt;/div&gt;&lt;/div&gt;&lt;div style=&quot;font-size: 16px&quot;&gt;&lt;/div&gt;&lt;/div&gt;" style="rounded=1;whiteSpace=wrap;html=1;fillColor=#E6E6E6;fontColor=#000000;fontSize=16;strokeColor=none;strokeWidth=2;" parent="3" vertex="1">
                    <mxGeometry x="272" y="47" width="70" height="30" as="geometry"/>
                </mxCell>
                <mxCell id="7" value="&lt;div style=&quot;font-size: 16px&quot;&gt;&lt;div style=&quot;font-size: 16px&quot;&gt;&lt;div style=&quot;font-size: 16px&quot;&gt;&lt;div style=&quot;font-size: 16px&quot;&gt;&lt;div style=&quot;font-size: 16px&quot;&gt;太伯&lt;br&gt;&lt;/div&gt;&lt;/div&gt;&lt;/div&gt;&lt;/div&gt;&lt;div style=&quot;font-size: 16px&quot;&gt;&lt;/div&gt;&lt;/div&gt;" style="rounded=1;whiteSpace=wrap;html=1;fillColor=#E6E6E6;fontColor=#000000;fontSize=16;strokeColor=none;strokeWidth=2;" parent="3" vertex="1">
                    <mxGeometry x="235" y="117" width="50" height="30" as="geometry"/>
                </mxCell>
                <mxCell id="43" value="&lt;font color=&quot;#ffff00&quot;&gt;1&lt;/font&gt;" style="ellipse;whiteSpace=wrap;html=1;aspect=fixed;fontFamily=Helvetica;fontSize=10;fontColor=#ffffff;fillColor=#a20025;strokeColor=#6F0000;" parent="3" vertex="1">
                    <mxGeometry x="305.5" y="285.25" width="19.5" height="19.5" as="geometry"/>
                </mxCell>
                <mxCell id="63" style="edgeStyle=orthogonalEdgeStyle;shape=connector;rounded=1;html=1;exitX=0.5;exitY=1;exitDx=0;exitDy=0;entryX=0.5;entryY=0;entryDx=0;entryDy=0;labelBackgroundColor=default;fontFamily=Helvetica;fontSize=16;fontColor=#000000;endArrow=blockThin;endFill=1;strokeColor=#000000;strokeWidth=1;" edge="1" parent="3" source="59" target="62">
                    <mxGeometry relative="1" as="geometry"/>
                </mxCell>
                <mxCell id="59" value="&lt;div style=&quot;font-size: 16px&quot;&gt;&lt;div style=&quot;font-size: 16px&quot;&gt;&lt;div style=&quot;font-size: 16px&quot;&gt;&lt;div style=&quot;font-size: 16px&quot;&gt;&lt;div style=&quot;font-size: 16px&quot;&gt;仲雍&lt;br&gt;&lt;/div&gt;&lt;/div&gt;&lt;/div&gt;&lt;/div&gt;&lt;div style=&quot;font-size: 16px&quot;&gt;&lt;/div&gt;&lt;/div&gt;" style="rounded=1;whiteSpace=wrap;html=1;fillColor=#E6E6E6;fontColor=#000000;fontSize=16;strokeColor=none;strokeWidth=2;" vertex="1" parent="3">
                    <mxGeometry x="325" y="117" width="50" height="30" as="geometry"/>
                </mxCell>
                <mxCell id="65" style="edgeStyle=orthogonalEdgeStyle;shape=connector;rounded=1;html=1;exitX=0.5;exitY=1;exitDx=0;exitDy=0;entryX=0.5;entryY=0;entryDx=0;entryDy=0;labelBackgroundColor=default;fontFamily=Helvetica;fontSize=16;fontColor=#000000;endArrow=blockThin;endFill=1;strokeColor=#000000;strokeWidth=1;" edge="1" parent="3" source="62" target="64">
                    <mxGeometry relative="1" as="geometry"/>
                </mxCell>
                <mxCell id="62" value="&lt;div style=&quot;font-size: 16px&quot;&gt;&lt;div style=&quot;font-size: 16px&quot;&gt;&lt;div style=&quot;font-size: 16px&quot;&gt;&lt;div style=&quot;font-size: 16px&quot;&gt;&lt;div style=&quot;font-size: 16px&quot;&gt;季简&lt;br&gt;&lt;/div&gt;&lt;/div&gt;&lt;/div&gt;&lt;/div&gt;&lt;div style=&quot;font-size: 16px&quot;&gt;&lt;/div&gt;&lt;/div&gt;" style="rounded=1;whiteSpace=wrap;html=1;fillColor=#E6E6E6;fontColor=#000000;fontSize=16;strokeColor=none;strokeWidth=2;" vertex="1" parent="3">
                    <mxGeometry x="325" y="170" width="50" height="30" as="geometry"/>
                </mxCell>
                <mxCell id="67" style="edgeStyle=orthogonalEdgeStyle;shape=connector;rounded=1;html=1;exitX=0.5;exitY=1;exitDx=0;exitDy=0;labelBackgroundColor=default;fontFamily=Helvetica;fontSize=16;fontColor=#000000;endArrow=blockThin;endFill=1;strokeColor=#000000;strokeWidth=1;" edge="1" parent="3" source="64" target="66">
                    <mxGeometry relative="1" as="geometry"/>
                </mxCell>
                <mxCell id="69" style="edgeStyle=orthogonalEdgeStyle;shape=connector;rounded=1;html=1;exitX=0.5;exitY=1;exitDx=0;exitDy=0;entryX=0.5;entryY=0;entryDx=0;entryDy=0;labelBackgroundColor=default;fontFamily=Helvetica;fontSize=16;fontColor=#000000;endArrow=blockThin;endFill=1;strokeColor=#000000;strokeWidth=1;" edge="1" parent="3" source="64" target="68">
                    <mxGeometry relative="1" as="geometry"/>
                </mxCell>
                <mxCell id="64" value="&lt;div style=&quot;font-size: 16px&quot;&gt;&lt;div style=&quot;font-size: 16px&quot;&gt;&lt;div style=&quot;font-size: 16px&quot;&gt;&lt;div style=&quot;font-size: 16px&quot;&gt;&lt;div style=&quot;font-size: 16px&quot;&gt;叔达&lt;br&gt;&lt;/div&gt;&lt;/div&gt;&lt;/div&gt;&lt;/div&gt;&lt;div style=&quot;font-size: 16px&quot;&gt;&lt;/div&gt;&lt;/div&gt;" style="rounded=1;whiteSpace=wrap;html=1;fillColor=#E6E6E6;fontColor=#000000;fontSize=16;strokeColor=none;strokeWidth=2;" vertex="1" parent="3">
                    <mxGeometry x="325" y="220" width="50" height="30" as="geometry"/>
                </mxCell>
                <mxCell id="71" style="edgeStyle=orthogonalEdgeStyle;shape=connector;rounded=1;html=1;exitX=0.5;exitY=1;exitDx=0;exitDy=0;entryX=0.5;entryY=0;entryDx=0;entryDy=0;labelBackgroundColor=default;fontFamily=Helvetica;fontSize=16;fontColor=#000000;endArrow=blockThin;endFill=1;strokeColor=#000000;strokeWidth=1;" edge="1" parent="3" source="66" target="70">
                    <mxGeometry relative="1" as="geometry"/>
                </mxCell>
                <mxCell id="66" value="&lt;div style=&quot;font-size: 16px&quot;&gt;&lt;div style=&quot;font-size: 16px&quot;&gt;&lt;div style=&quot;font-size: 16px&quot;&gt;&lt;div style=&quot;font-size: 16px&quot;&gt;&lt;div style=&quot;font-size: 16px&quot;&gt;周章&lt;br&gt;&lt;/div&gt;&lt;/div&gt;&lt;/div&gt;&lt;/div&gt;&lt;div style=&quot;font-size: 16px&quot;&gt;&lt;/div&gt;&lt;/div&gt;" style="rounded=1;whiteSpace=wrap;html=1;fillColor=#E6E6E6;fontColor=#000000;fontSize=16;strokeColor=none;strokeWidth=2;" vertex="1" parent="3">
                    <mxGeometry x="325" y="280" width="50" height="30" as="geometry"/>
                </mxCell>
                <mxCell id="68" value="&lt;div style=&quot;font-size: 16px&quot;&gt;&lt;div style=&quot;font-size: 16px&quot;&gt;&lt;div style=&quot;font-size: 16px&quot;&gt;&lt;div style=&quot;font-size: 16px&quot;&gt;&lt;div style=&quot;font-size: 16px&quot;&gt;虞仲&lt;br&gt;&lt;/div&gt;&lt;/div&gt;&lt;/div&gt;&lt;/div&gt;&lt;div style=&quot;font-size: 16px&quot;&gt;&lt;/div&gt;&lt;/div&gt;" style="rounded=1;whiteSpace=wrap;html=1;fillColor=#E6E6E6;fontColor=#000000;fontSize=16;strokeColor=none;strokeWidth=2;" vertex="1" parent="3">
                    <mxGeometry x="405" y="280" width="50" height="30" as="geometry"/>
                </mxCell>
                <mxCell id="73" style="edgeStyle=orthogonalEdgeStyle;shape=connector;rounded=1;html=1;exitX=0.5;exitY=1;exitDx=0;exitDy=0;entryX=0.5;entryY=0;entryDx=0;entryDy=0;labelBackgroundColor=default;fontFamily=Helvetica;fontSize=16;fontColor=#000000;endArrow=blockThin;endFill=1;strokeColor=#000000;strokeWidth=1;" edge="1" parent="3" source="70" target="72">
                    <mxGeometry relative="1" as="geometry"/>
                </mxCell>
                <mxCell id="70" value="&lt;div style=&quot;font-size: 16px&quot;&gt;&lt;div style=&quot;font-size: 16px&quot;&gt;&lt;div style=&quot;font-size: 16px&quot;&gt;&lt;div style=&quot;font-size: 16px&quot;&gt;&lt;div style=&quot;font-size: 16px&quot;&gt;熊遂&lt;br&gt;&lt;/div&gt;&lt;/div&gt;&lt;/div&gt;&lt;/div&gt;&lt;div style=&quot;font-size: 16px&quot;&gt;&lt;/div&gt;&lt;/div&gt;" style="rounded=1;whiteSpace=wrap;html=1;fillColor=#E6E6E6;fontColor=#000000;fontSize=16;strokeColor=none;strokeWidth=2;" vertex="1" parent="3">
                    <mxGeometry x="325" y="330" width="50" height="30" as="geometry"/>
                </mxCell>
                <mxCell id="75" style="edgeStyle=orthogonalEdgeStyle;shape=connector;rounded=1;html=1;exitX=0.5;exitY=1;exitDx=0;exitDy=0;labelBackgroundColor=default;fontFamily=Helvetica;fontSize=16;fontColor=#000000;endArrow=blockThin;endFill=1;strokeColor=#000000;strokeWidth=1;" edge="1" parent="3" source="72" target="74">
                    <mxGeometry relative="1" as="geometry"/>
                </mxCell>
                <mxCell id="72" value="&lt;div style=&quot;font-size: 16px&quot;&gt;&lt;div style=&quot;font-size: 16px&quot;&gt;&lt;div style=&quot;font-size: 16px&quot;&gt;&lt;div style=&quot;font-size: 16px&quot;&gt;&lt;div style=&quot;font-size: 16px&quot;&gt;柯相&lt;br&gt;&lt;/div&gt;&lt;/div&gt;&lt;/div&gt;&lt;/div&gt;&lt;div style=&quot;font-size: 16px&quot;&gt;&lt;/div&gt;&lt;/div&gt;" style="rounded=1;whiteSpace=wrap;html=1;fillColor=#E6E6E6;fontColor=#000000;fontSize=16;strokeColor=none;strokeWidth=2;" vertex="1" parent="3">
                    <mxGeometry x="325" y="380" width="50" height="30" as="geometry"/>
                </mxCell>
                <mxCell id="77" style="edgeStyle=orthogonalEdgeStyle;shape=connector;rounded=1;html=1;exitX=0.5;exitY=1;exitDx=0;exitDy=0;entryX=0.5;entryY=0;entryDx=0;entryDy=0;labelBackgroundColor=default;fontFamily=Helvetica;fontSize=16;fontColor=#000000;endArrow=blockThin;endFill=1;strokeColor=#000000;strokeWidth=1;" edge="1" parent="3" source="74" target="76">
                    <mxGeometry relative="1" as="geometry"/>
                </mxCell>
                <mxCell id="74" value="&lt;div style=&quot;font-size: 16px&quot;&gt;&lt;div style=&quot;font-size: 16px&quot;&gt;&lt;div style=&quot;font-size: 16px&quot;&gt;&lt;div style=&quot;font-size: 16px&quot;&gt;&lt;div style=&quot;font-size: 16px&quot;&gt;彊鸠夷&lt;br&gt;&lt;/div&gt;&lt;/div&gt;&lt;/div&gt;&lt;/div&gt;&lt;div style=&quot;font-size: 16px&quot;&gt;&lt;/div&gt;&lt;/div&gt;" style="rounded=1;whiteSpace=wrap;html=1;fillColor=#E6E6E6;fontColor=#000000;fontSize=16;strokeColor=none;strokeWidth=2;" vertex="1" parent="3">
                    <mxGeometry x="320" y="430" width="60" height="30" as="geometry"/>
                </mxCell>
                <mxCell id="79" style="edgeStyle=orthogonalEdgeStyle;shape=connector;rounded=1;html=1;exitX=0.5;exitY=1;exitDx=0;exitDy=0;entryX=0.5;entryY=0;entryDx=0;entryDy=0;labelBackgroundColor=default;fontFamily=Helvetica;fontSize=16;fontColor=#000000;endArrow=blockThin;endFill=1;strokeColor=#000000;strokeWidth=1;" edge="1" parent="3" source="76" target="78">
                    <mxGeometry relative="1" as="geometry"/>
                </mxCell>
                <mxCell id="76" value="&lt;div style=&quot;font-size: 16px&quot;&gt;&lt;div style=&quot;font-size: 16px&quot;&gt;&lt;div style=&quot;font-size: 16px&quot;&gt;&lt;div style=&quot;font-size: 16px&quot;&gt;&lt;div style=&quot;font-size: 16px&quot;&gt;馀桥疑吾&lt;br&gt;&lt;/div&gt;&lt;/div&gt;&lt;/div&gt;&lt;/div&gt;&lt;div style=&quot;font-size: 16px&quot;&gt;&lt;/div&gt;&lt;/div&gt;" style="rounded=1;whiteSpace=wrap;html=1;fillColor=#E6E6E6;fontColor=#000000;fontSize=16;strokeColor=none;strokeWidth=2;" vertex="1" parent="3">
                    <mxGeometry x="310" y="480" width="80" height="30" as="geometry"/>
                </mxCell>
                <mxCell id="81" style="edgeStyle=orthogonalEdgeStyle;shape=connector;rounded=1;html=1;exitX=0.5;exitY=1;exitDx=0;exitDy=0;labelBackgroundColor=default;fontFamily=Helvetica;fontSize=16;fontColor=#000000;endArrow=blockThin;endFill=1;strokeColor=#000000;strokeWidth=1;" edge="1" parent="3" source="78" target="80">
                    <mxGeometry relative="1" as="geometry"/>
                </mxCell>
                <mxCell id="78" value="&lt;div style=&quot;font-size: 16px&quot;&gt;&lt;div style=&quot;font-size: 16px&quot;&gt;&lt;div style=&quot;font-size: 16px&quot;&gt;&lt;div style=&quot;font-size: 16px&quot;&gt;&lt;div style=&quot;font-size: 16px&quot;&gt;柯卢&lt;br&gt;&lt;/div&gt;&lt;/div&gt;&lt;/div&gt;&lt;/div&gt;&lt;div style=&quot;font-size: 16px&quot;&gt;&lt;/div&gt;&lt;/div&gt;" style="rounded=1;whiteSpace=wrap;html=1;fillColor=#E6E6E6;fontColor=#000000;fontSize=16;strokeColor=none;strokeWidth=2;" vertex="1" parent="3">
                    <mxGeometry x="325" y="530" width="50" height="30" as="geometry"/>
                </mxCell>
                <mxCell id="83" style="edgeStyle=orthogonalEdgeStyle;shape=connector;rounded=1;html=1;exitX=0.5;exitY=1;exitDx=0;exitDy=0;entryX=0.5;entryY=0;entryDx=0;entryDy=0;labelBackgroundColor=default;fontFamily=Helvetica;fontSize=16;fontColor=#000000;endArrow=blockThin;endFill=1;strokeColor=#000000;strokeWidth=1;" edge="1" parent="3" source="80" target="82">
                    <mxGeometry relative="1" as="geometry"/>
                </mxCell>
                <mxCell id="80" value="&lt;div style=&quot;font-size: 16px&quot;&gt;&lt;div style=&quot;font-size: 16px&quot;&gt;&lt;div style=&quot;font-size: 16px&quot;&gt;&lt;div style=&quot;font-size: 16px&quot;&gt;&lt;div style=&quot;font-size: 16px&quot;&gt;周繇&lt;br&gt;&lt;/div&gt;&lt;/div&gt;&lt;/div&gt;&lt;/div&gt;&lt;div style=&quot;font-size: 16px&quot;&gt;&lt;/div&gt;&lt;/div&gt;" style="rounded=1;whiteSpace=wrap;html=1;fillColor=#E6E6E6;fontColor=#000000;fontSize=16;strokeColor=none;strokeWidth=2;" vertex="1" parent="3">
                    <mxGeometry x="325" y="580" width="50" height="30" as="geometry"/>
                </mxCell>
                <mxCell id="85" style="edgeStyle=orthogonalEdgeStyle;shape=connector;rounded=1;html=1;exitX=0.5;exitY=1;exitDx=0;exitDy=0;entryX=0.5;entryY=0;entryDx=0;entryDy=0;labelBackgroundColor=default;fontFamily=Helvetica;fontSize=16;fontColor=#000000;endArrow=blockThin;endFill=1;strokeColor=#000000;strokeWidth=1;" edge="1" parent="3" source="82" target="84">
                    <mxGeometry relative="1" as="geometry"/>
                </mxCell>
                <mxCell id="82" value="&lt;div style=&quot;font-size: 16px&quot;&gt;&lt;div style=&quot;font-size: 16px&quot;&gt;&lt;div style=&quot;font-size: 16px&quot;&gt;&lt;div style=&quot;font-size: 16px&quot;&gt;&lt;div style=&quot;font-size: 16px&quot;&gt;屈羽&lt;br&gt;&lt;/div&gt;&lt;/div&gt;&lt;/div&gt;&lt;/div&gt;&lt;div style=&quot;font-size: 16px&quot;&gt;&lt;/div&gt;&lt;/div&gt;" style="rounded=1;whiteSpace=wrap;html=1;fillColor=#E6E6E6;fontColor=#000000;fontSize=16;strokeColor=none;strokeWidth=2;" vertex="1" parent="3">
                    <mxGeometry x="325" y="630" width="50" height="30" as="geometry"/>
                </mxCell>
                <mxCell id="87" style="edgeStyle=orthogonalEdgeStyle;shape=connector;rounded=1;html=1;exitX=0.5;exitY=1;exitDx=0;exitDy=0;entryX=0.5;entryY=0;entryDx=0;entryDy=0;labelBackgroundColor=default;fontFamily=Helvetica;fontSize=16;fontColor=#000000;endArrow=blockThin;endFill=1;strokeColor=#000000;strokeWidth=1;" edge="1" parent="3" source="84" target="86">
                    <mxGeometry relative="1" as="geometry"/>
                </mxCell>
                <mxCell id="84" value="&lt;div style=&quot;font-size: 16px&quot;&gt;&lt;div style=&quot;font-size: 16px&quot;&gt;&lt;div style=&quot;font-size: 16px&quot;&gt;&lt;div style=&quot;font-size: 16px&quot;&gt;&lt;div style=&quot;font-size: 16px&quot;&gt;夷吾&lt;br&gt;&lt;/div&gt;&lt;/div&gt;&lt;/div&gt;&lt;/div&gt;&lt;div style=&quot;font-size: 16px&quot;&gt;&lt;/div&gt;&lt;/div&gt;" style="rounded=1;whiteSpace=wrap;html=1;fillColor=#E6E6E6;fontColor=#000000;fontSize=16;strokeColor=none;strokeWidth=2;" vertex="1" parent="3">
                    <mxGeometry x="325" y="680" width="50" height="30" as="geometry"/>
                </mxCell>
                <mxCell id="89" style="edgeStyle=orthogonalEdgeStyle;shape=connector;rounded=1;html=1;exitX=0.5;exitY=1;exitDx=0;exitDy=0;labelBackgroundColor=default;fontFamily=Helvetica;fontSize=16;fontColor=#000000;endArrow=blockThin;endFill=1;strokeColor=#000000;strokeWidth=1;" edge="1" parent="3" source="86" target="88">
                    <mxGeometry relative="1" as="geometry"/>
                </mxCell>
                <mxCell id="86" value="&lt;div style=&quot;font-size: 16px&quot;&gt;&lt;div style=&quot;font-size: 16px&quot;&gt;&lt;div style=&quot;font-size: 16px&quot;&gt;&lt;div style=&quot;font-size: 16px&quot;&gt;&lt;div style=&quot;font-size: 16px&quot;&gt;禽处&lt;br&gt;&lt;/div&gt;&lt;/div&gt;&lt;/div&gt;&lt;/div&gt;&lt;div style=&quot;font-size: 16px&quot;&gt;&lt;/div&gt;&lt;/div&gt;" style="rounded=1;whiteSpace=wrap;html=1;fillColor=#E6E6E6;fontColor=#000000;fontSize=16;strokeColor=none;strokeWidth=2;" vertex="1" parent="3">
                    <mxGeometry x="325" y="730" width="50" height="30" as="geometry"/>
                </mxCell>
                <mxCell id="91" style="edgeStyle=orthogonalEdgeStyle;shape=connector;rounded=1;html=1;exitX=0.5;exitY=1;exitDx=0;exitDy=0;entryX=0.5;entryY=0;entryDx=0;entryDy=0;labelBackgroundColor=default;fontFamily=Helvetica;fontSize=16;fontColor=#000000;endArrow=blockThin;endFill=1;strokeColor=#000000;strokeWidth=1;" edge="1" parent="3" source="88" target="90">
                    <mxGeometry relative="1" as="geometry"/>
                </mxCell>
                <mxCell id="88" value="&lt;div style=&quot;font-size: 16px&quot;&gt;&lt;div style=&quot;font-size: 16px&quot;&gt;&lt;div style=&quot;font-size: 16px&quot;&gt;&lt;div style=&quot;font-size: 16px&quot;&gt;&lt;div style=&quot;font-size: 16px&quot;&gt;转&lt;br&gt;&lt;/div&gt;&lt;/div&gt;&lt;/div&gt;&lt;/div&gt;&lt;div style=&quot;font-size: 16px&quot;&gt;&lt;/div&gt;&lt;/div&gt;" style="rounded=1;whiteSpace=wrap;html=1;fillColor=#E6E6E6;fontColor=#000000;fontSize=16;strokeColor=none;strokeWidth=2;" vertex="1" parent="3">
                    <mxGeometry x="325" y="780" width="50" height="30" as="geometry"/>
                </mxCell>
                <mxCell id="93" style="edgeStyle=orthogonalEdgeStyle;shape=connector;rounded=1;html=1;exitX=0.5;exitY=1;exitDx=0;exitDy=0;entryX=0.5;entryY=0;entryDx=0;entryDy=0;labelBackgroundColor=default;fontFamily=Helvetica;fontSize=16;fontColor=#000000;endArrow=blockThin;endFill=1;strokeColor=#000000;strokeWidth=1;" edge="1" parent="3" source="90" target="92">
                    <mxGeometry relative="1" as="geometry"/>
                </mxCell>
                <mxCell id="90" value="&lt;div style=&quot;font-size: 16px&quot;&gt;&lt;div style=&quot;font-size: 16px&quot;&gt;&lt;div style=&quot;font-size: 16px&quot;&gt;&lt;div style=&quot;font-size: 16px&quot;&gt;&lt;div style=&quot;font-size: 16px&quot;&gt;颇高&lt;br&gt;&lt;/div&gt;&lt;/div&gt;&lt;/div&gt;&lt;/div&gt;&lt;div style=&quot;font-size: 16px&quot;&gt;&lt;/div&gt;&lt;/div&gt;" style="rounded=1;whiteSpace=wrap;html=1;fillColor=#E6E6E6;fontColor=#000000;fontSize=16;strokeColor=none;strokeWidth=2;" vertex="1" parent="3">
                    <mxGeometry x="325" y="830" width="50" height="30" as="geometry"/>
                </mxCell>
                <mxCell id="95" style="edgeStyle=orthogonalEdgeStyle;shape=connector;rounded=1;html=1;exitX=0.5;exitY=1;exitDx=0;exitDy=0;entryX=0.5;entryY=0;entryDx=0;entryDy=0;labelBackgroundColor=default;fontFamily=Helvetica;fontSize=16;fontColor=#000000;endArrow=blockThin;endFill=1;strokeColor=#000000;strokeWidth=1;" edge="1" parent="3" source="92" target="94">
                    <mxGeometry relative="1" as="geometry"/>
                </mxCell>
                <mxCell id="92" value="&lt;div style=&quot;font-size: 16px&quot;&gt;&lt;div style=&quot;font-size: 16px&quot;&gt;&lt;div style=&quot;font-size: 16px&quot;&gt;&lt;div style=&quot;font-size: 16px&quot;&gt;&lt;div style=&quot;font-size: 16px&quot;&gt;句卑&lt;br&gt;&lt;/div&gt;&lt;/div&gt;&lt;/div&gt;&lt;/div&gt;&lt;div style=&quot;font-size: 16px&quot;&gt;&lt;/div&gt;&lt;/div&gt;" style="rounded=1;whiteSpace=wrap;html=1;fillColor=#E6E6E6;fontColor=#000000;fontSize=16;strokeColor=none;strokeWidth=2;" vertex="1" parent="3">
                    <mxGeometry x="325" y="880" width="50" height="30" as="geometry"/>
                </mxCell>
                <mxCell id="97" style="edgeStyle=orthogonalEdgeStyle;shape=connector;rounded=1;html=1;exitX=0.5;exitY=1;exitDx=0;exitDy=0;entryX=0.5;entryY=0;entryDx=0;entryDy=0;labelBackgroundColor=default;fontFamily=Helvetica;fontSize=16;fontColor=#000000;endArrow=blockThin;endFill=1;strokeColor=#000000;strokeWidth=1;" edge="1" parent="3" source="94" target="96">
                    <mxGeometry relative="1" as="geometry"/>
                </mxCell>
                <mxCell id="94" value="&lt;div style=&quot;font-size: 16px&quot;&gt;&lt;div style=&quot;font-size: 16px&quot;&gt;&lt;div style=&quot;font-size: 16px&quot;&gt;&lt;div style=&quot;font-size: 16px&quot;&gt;&lt;div style=&quot;font-size: 16px&quot;&gt;去齐&lt;br&gt;&lt;/div&gt;&lt;/div&gt;&lt;/div&gt;&lt;/div&gt;&lt;div style=&quot;font-size: 16px&quot;&gt;&lt;/div&gt;&lt;/div&gt;" style="rounded=1;whiteSpace=wrap;html=1;fillColor=#E6E6E6;fontColor=#000000;fontSize=16;strokeColor=none;strokeWidth=2;" vertex="1" parent="3">
                    <mxGeometry x="325" y="930" width="50" height="30" as="geometry"/>
                </mxCell>
                <mxCell id="122" style="edgeStyle=orthogonalEdgeStyle;shape=connector;rounded=1;html=1;exitX=0.5;exitY=1;exitDx=0;exitDy=0;entryX=0.5;entryY=0;entryDx=0;entryDy=0;labelBackgroundColor=default;fontFamily=Helvetica;fontSize=16;fontColor=#000000;endArrow=blockThin;endFill=1;strokeColor=#000000;strokeWidth=1;" edge="1" parent="3" source="96" target="115">
                    <mxGeometry relative="1" as="geometry"/>
                </mxCell>
                <mxCell id="123" style="edgeStyle=orthogonalEdgeStyle;shape=connector;rounded=1;html=1;exitX=0.5;exitY=1;exitDx=0;exitDy=0;labelBackgroundColor=default;fontFamily=Helvetica;fontSize=16;fontColor=#000000;endArrow=blockThin;endFill=1;strokeColor=#000000;strokeWidth=1;" edge="1" parent="3" source="96" target="116">
                    <mxGeometry relative="1" as="geometry"/>
                </mxCell>
                <mxCell id="124" style="edgeStyle=orthogonalEdgeStyle;shape=connector;rounded=1;html=1;exitX=0.5;exitY=1;exitDx=0;exitDy=0;labelBackgroundColor=default;fontFamily=Helvetica;fontSize=16;fontColor=#000000;endArrow=blockThin;endFill=1;strokeColor=#000000;strokeWidth=1;" edge="1" parent="3" source="96" target="117">
                    <mxGeometry relative="1" as="geometry"/>
                </mxCell>
                <mxCell id="125" style="edgeStyle=orthogonalEdgeStyle;shape=connector;rounded=1;html=1;exitX=0.5;exitY=1;exitDx=0;exitDy=0;entryX=0.5;entryY=0;entryDx=0;entryDy=0;labelBackgroundColor=default;fontFamily=Helvetica;fontSize=16;fontColor=#000000;endArrow=blockThin;endFill=1;strokeColor=#000000;strokeWidth=1;" edge="1" parent="3" source="96" target="118">
                    <mxGeometry relative="1" as="geometry"/>
                </mxCell>
                <mxCell id="96" value="&lt;div style=&quot;font-size: 16px&quot;&gt;&lt;div style=&quot;font-size: 16px&quot;&gt;&lt;div style=&quot;font-size: 16px&quot;&gt;&lt;div style=&quot;font-size: 16px&quot;&gt;&lt;div style=&quot;font-size: 16px&quot;&gt;寿梦&lt;br&gt;&lt;/div&gt;&lt;/div&gt;&lt;/div&gt;&lt;/div&gt;&lt;div style=&quot;font-size: 16px&quot;&gt;&lt;/div&gt;&lt;/div&gt;" style="rounded=1;whiteSpace=wrap;html=1;fillColor=#E6E6E6;fontColor=#000000;fontSize=16;strokeColor=none;strokeWidth=2;" vertex="1" parent="3">
                    <mxGeometry x="325" y="980" width="50" height="30" as="geometry"/>
                </mxCell>
                <mxCell id="98" value="&lt;font color=&quot;#ffff00&quot;&gt;2&lt;/font&gt;" style="ellipse;whiteSpace=wrap;html=1;aspect=fixed;fontFamily=Helvetica;fontSize=10;fontColor=#ffffff;fillColor=#a20025;strokeColor=#6F0000;" vertex="1" parent="3">
                    <mxGeometry x="305.5" y="335.25" width="19.5" height="19.5" as="geometry"/>
                </mxCell>
                <mxCell id="99" value="&lt;font color=&quot;#ffff00&quot;&gt;3&lt;/font&gt;" style="ellipse;whiteSpace=wrap;html=1;aspect=fixed;fontFamily=Helvetica;fontSize=10;fontColor=#ffffff;fillColor=#a20025;strokeColor=#6F0000;" vertex="1" parent="3">
                    <mxGeometry x="305.5" y="385.25" width="19.5" height="19.5" as="geometry"/>
                </mxCell>
                <mxCell id="100" value="&lt;font color=&quot;#ffff00&quot;&gt;4&lt;/font&gt;" style="ellipse;whiteSpace=wrap;html=1;aspect=fixed;fontFamily=Helvetica;fontSize=10;fontColor=#ffffff;fillColor=#a20025;strokeColor=#6F0000;" vertex="1" parent="3">
                    <mxGeometry x="300.5" y="435.25" width="19.5" height="19.5" as="geometry"/>
                </mxCell>
                <mxCell id="101" value="&lt;font color=&quot;#ffff00&quot;&gt;5&lt;/font&gt;" style="ellipse;whiteSpace=wrap;html=1;aspect=fixed;fontFamily=Helvetica;fontSize=10;fontColor=#ffffff;fillColor=#a20025;strokeColor=#6F0000;" vertex="1" parent="3">
                    <mxGeometry x="290" y="485.25" width="19.5" height="19.5" as="geometry"/>
                </mxCell>
                <mxCell id="102" value="&lt;font color=&quot;#ffff00&quot;&gt;6&lt;/font&gt;" style="ellipse;whiteSpace=wrap;html=1;aspect=fixed;fontFamily=Helvetica;fontSize=10;fontColor=#ffffff;fillColor=#a20025;strokeColor=#6F0000;" vertex="1" parent="3">
                    <mxGeometry x="304.5" y="535.25" width="19.5" height="19.5" as="geometry"/>
                </mxCell>
                <mxCell id="103" value="&lt;font color=&quot;#ffff00&quot;&gt;7&lt;/font&gt;" style="ellipse;whiteSpace=wrap;html=1;aspect=fixed;fontFamily=Helvetica;fontSize=10;fontColor=#ffffff;fillColor=#a20025;strokeColor=#6F0000;" vertex="1" parent="3">
                    <mxGeometry x="304.5" y="585.25" width="19.5" height="19.5" as="geometry"/>
                </mxCell>
                <mxCell id="104" value="&lt;font color=&quot;#ffff00&quot;&gt;8&lt;/font&gt;" style="ellipse;whiteSpace=wrap;html=1;aspect=fixed;fontFamily=Helvetica;fontSize=10;fontColor=#ffffff;fillColor=#a20025;strokeColor=#6F0000;" vertex="1" parent="3">
                    <mxGeometry x="305.5" y="635.25" width="19.5" height="19.5" as="geometry"/>
                </mxCell>
                <mxCell id="105" value="&lt;font color=&quot;#ffff00&quot;&gt;9&lt;/font&gt;" style="ellipse;whiteSpace=wrap;html=1;aspect=fixed;fontFamily=Helvetica;fontSize=10;fontColor=#ffffff;fillColor=#a20025;strokeColor=#6F0000;" vertex="1" parent="3">
                    <mxGeometry x="304.5" y="685.25" width="19.5" height="19.5" as="geometry"/>
                </mxCell>
                <mxCell id="106" value="&lt;font color=&quot;#ffff00&quot;&gt;10&lt;/font&gt;" style="ellipse;whiteSpace=wrap;html=1;aspect=fixed;fontFamily=Helvetica;fontSize=10;fontColor=#ffffff;fillColor=#a20025;strokeColor=#6F0000;" vertex="1" parent="3">
                    <mxGeometry x="304.5" y="735.25" width="19.5" height="19.5" as="geometry"/>
                </mxCell>
                <mxCell id="107" value="&lt;font color=&quot;#ffff00&quot;&gt;11&lt;/font&gt;" style="ellipse;whiteSpace=wrap;html=1;aspect=fixed;fontFamily=Helvetica;fontSize=10;fontColor=#ffffff;fillColor=#a20025;strokeColor=#6F0000;" vertex="1" parent="3">
                    <mxGeometry x="304.5" y="785.25" width="19.5" height="19.5" as="geometry"/>
                </mxCell>
                <mxCell id="108" value="&lt;font color=&quot;#ffff00&quot;&gt;12&lt;/font&gt;" style="ellipse;whiteSpace=wrap;html=1;aspect=fixed;fontFamily=Helvetica;fontSize=10;fontColor=#ffffff;fillColor=#a20025;strokeColor=#6F0000;" vertex="1" parent="3">
                    <mxGeometry x="304.5" y="835.25" width="19.5" height="19.5" as="geometry"/>
                </mxCell>
                <mxCell id="109" value="&lt;font color=&quot;#ffff00&quot;&gt;13&lt;/font&gt;" style="ellipse;whiteSpace=wrap;html=1;aspect=fixed;fontFamily=Helvetica;fontSize=10;fontColor=#ffffff;fillColor=#a20025;strokeColor=#6F0000;" vertex="1" parent="3">
                    <mxGeometry x="303.5" y="885.25" width="19.5" height="19.5" as="geometry"/>
                </mxCell>
                <mxCell id="110" value="&lt;font color=&quot;#ffff00&quot;&gt;14&lt;/font&gt;" style="ellipse;whiteSpace=wrap;html=1;aspect=fixed;fontFamily=Helvetica;fontSize=10;fontColor=#ffffff;fillColor=#a20025;strokeColor=#6F0000;" vertex="1" parent="3">
                    <mxGeometry x="303.5" y="935.25" width="19.5" height="19.5" as="geometry"/>
                </mxCell>
                <mxCell id="111" value="&lt;font color=&quot;#ffff00&quot;&gt;15&lt;/font&gt;" style="ellipse;whiteSpace=wrap;html=1;aspect=fixed;fontFamily=Helvetica;fontSize=10;fontColor=#ffffff;fillColor=#a20025;strokeColor=#6F0000;" vertex="1" parent="3">
                    <mxGeometry x="303.5" y="985.25" width="19.5" height="19.5" as="geometry"/>
                </mxCell>
                <mxCell id="131" style="edgeStyle=orthogonalEdgeStyle;shape=connector;rounded=1;html=1;exitX=0.5;exitY=1;exitDx=0;exitDy=0;entryX=0.5;entryY=0;entryDx=0;entryDy=0;labelBackgroundColor=default;fontFamily=Helvetica;fontSize=16;fontColor=#000000;endArrow=blockThin;endFill=1;strokeColor=#000000;strokeWidth=1;" edge="1" parent="3" source="115" target="130">
                    <mxGeometry relative="1" as="geometry"/>
                </mxCell>
                <mxCell id="135" style="edgeStyle=orthogonalEdgeStyle;shape=connector;rounded=1;html=1;exitX=0.5;exitY=1;exitDx=0;exitDy=0;entryX=0.5;entryY=0;entryDx=0;entryDy=0;labelBackgroundColor=default;fontFamily=Helvetica;fontSize=16;fontColor=#000000;endArrow=blockThin;endFill=1;strokeColor=#000000;strokeWidth=1;" edge="1" parent="3" source="115" target="133">
                    <mxGeometry relative="1" as="geometry"/>
                </mxCell>
                <mxCell id="136" style="edgeStyle=orthogonalEdgeStyle;shape=connector;rounded=1;html=1;exitX=0.5;exitY=1;exitDx=0;exitDy=0;entryX=0.5;entryY=0;entryDx=0;entryDy=0;labelBackgroundColor=default;fontFamily=Helvetica;fontSize=16;fontColor=#000000;endArrow=blockThin;endFill=1;strokeColor=#000000;strokeWidth=1;" edge="1" parent="3" source="115" target="134">
                    <mxGeometry relative="1" as="geometry"/>
                </mxCell>
                <mxCell id="138" style="edgeStyle=orthogonalEdgeStyle;shape=connector;rounded=1;html=1;exitX=0.5;exitY=1;exitDx=0;exitDy=0;entryX=0.5;entryY=0;entryDx=0;entryDy=0;labelBackgroundColor=default;fontFamily=Helvetica;fontSize=16;fontColor=#000000;endArrow=blockThin;endFill=1;strokeColor=#000000;strokeWidth=1;" edge="1" parent="3" source="115" target="137">
                    <mxGeometry relative="1" as="geometry"/>
                </mxCell>
                <mxCell id="115" value="&lt;div style=&quot;font-size: 16px&quot;&gt;&lt;div style=&quot;font-size: 16px&quot;&gt;&lt;div style=&quot;font-size: 16px&quot;&gt;&lt;div style=&quot;font-size: 16px&quot;&gt;&lt;div style=&quot;font-size: 16px&quot;&gt;诸樊&lt;br&gt;&lt;/div&gt;&lt;/div&gt;&lt;/div&gt;&lt;/div&gt;&lt;div style=&quot;font-size: 16px&quot;&gt;&lt;/div&gt;&lt;/div&gt;" style="rounded=1;whiteSpace=wrap;html=1;fillColor=#E6E6E6;fontColor=#000000;fontSize=16;strokeColor=none;strokeWidth=2;" vertex="1" parent="3">
                    <mxGeometry x="208" y="1050" width="50" height="30" as="geometry"/>
                </mxCell>
                <mxCell id="116" value="&lt;div style=&quot;font-size: 16px&quot;&gt;&lt;div style=&quot;font-size: 16px&quot;&gt;&lt;div style=&quot;font-size: 16px&quot;&gt;&lt;div style=&quot;font-size: 16px&quot;&gt;&lt;div style=&quot;font-size: 16px&quot;&gt;馀祭&lt;br&gt;&lt;/div&gt;&lt;/div&gt;&lt;/div&gt;&lt;/div&gt;&lt;div style=&quot;font-size: 16px&quot;&gt;&lt;/div&gt;&lt;/div&gt;" style="rounded=1;whiteSpace=wrap;html=1;fillColor=#E6E6E6;fontColor=#000000;fontSize=16;strokeColor=none;strokeWidth=2;" vertex="1" parent="3">
                    <mxGeometry x="288" y="1050" width="50" height="30" as="geometry"/>
                </mxCell>
                <mxCell id="128" style="edgeStyle=orthogonalEdgeStyle;shape=connector;rounded=1;html=1;exitX=0.5;exitY=1;exitDx=0;exitDy=0;entryX=0.5;entryY=0;entryDx=0;entryDy=0;labelBackgroundColor=default;fontFamily=Helvetica;fontSize=16;fontColor=#000000;endArrow=blockThin;endFill=1;strokeColor=#000000;strokeWidth=1;" edge="1" parent="3" source="117" target="127">
                    <mxGeometry relative="1" as="geometry"/>
                </mxCell>
                <mxCell id="117" value="&lt;div style=&quot;font-size: 16px&quot;&gt;&lt;div style=&quot;font-size: 16px&quot;&gt;&lt;div style=&quot;font-size: 16px&quot;&gt;&lt;div style=&quot;font-size: 16px&quot;&gt;&lt;div style=&quot;font-size: 16px&quot;&gt;馀眜&lt;br&gt;&lt;/div&gt;&lt;/div&gt;&lt;/div&gt;&lt;/div&gt;&lt;div style=&quot;font-size: 16px&quot;&gt;&lt;/div&gt;&lt;/div&gt;" style="rounded=1;whiteSpace=wrap;html=1;fillColor=#E6E6E6;fontColor=#000000;fontSize=16;strokeColor=none;strokeWidth=2;" vertex="1" parent="3">
                    <mxGeometry x="366" y="1050" width="50" height="30" as="geometry"/>
                </mxCell>
                <mxCell id="118" value="&lt;div style=&quot;font-size: 16px&quot;&gt;&lt;div style=&quot;font-size: 16px&quot;&gt;&lt;div style=&quot;font-size: 16px&quot;&gt;&lt;div style=&quot;font-size: 16px&quot;&gt;&lt;div style=&quot;font-size: 16px&quot;&gt;季札&lt;br&gt;&lt;/div&gt;&lt;/div&gt;&lt;/div&gt;&lt;/div&gt;&lt;div style=&quot;font-size: 16px&quot;&gt;&lt;/div&gt;&lt;/div&gt;" style="rounded=1;whiteSpace=wrap;html=1;fillColor=#E6E6E6;fontColor=#000000;fontSize=16;strokeColor=none;strokeWidth=2;" vertex="1" parent="3">
                    <mxGeometry x="428" y="1050" width="50" height="30" as="geometry"/>
                </mxCell>
                <mxCell id="119" value="&lt;font color=&quot;#ffff00&quot;&gt;16&lt;/font&gt;" style="ellipse;whiteSpace=wrap;html=1;aspect=fixed;fontFamily=Helvetica;fontSize=10;fontColor=#ffffff;fillColor=#a20025;strokeColor=#6F0000;" vertex="1" parent="3">
                    <mxGeometry x="188.5" y="1055.25" width="19.5" height="19.5" as="geometry"/>
                </mxCell>
                <mxCell id="120" value="&lt;font color=&quot;#ffff00&quot;&gt;17&lt;/font&gt;" style="ellipse;whiteSpace=wrap;html=1;aspect=fixed;fontFamily=Helvetica;fontSize=10;fontColor=#ffffff;fillColor=#a20025;strokeColor=#6F0000;" vertex="1" parent="3">
                    <mxGeometry x="268" y="1055.25" width="19.5" height="19.5" as="geometry"/>
                </mxCell>
                <mxCell id="121" value="&lt;font color=&quot;#ffff00&quot;&gt;18&lt;/font&gt;" style="ellipse;whiteSpace=wrap;html=1;aspect=fixed;fontFamily=Helvetica;fontSize=10;fontColor=#ffffff;fillColor=#a20025;strokeColor=#6F0000;" vertex="1" parent="3">
                    <mxGeometry x="346" y="1055.25" width="19.5" height="19.5" as="geometry"/>
                </mxCell>
                <mxCell id="126" value="&lt;font color=&quot;#ffff00&quot;&gt;19&lt;/font&gt;" style="ellipse;whiteSpace=wrap;html=1;aspect=fixed;fontFamily=Helvetica;fontSize=10;fontColor=#ffffff;fillColor=#a20025;strokeColor=#6F0000;" vertex="1" parent="3">
                    <mxGeometry x="346" y="1115.25" width="19.5" height="19.5" as="geometry"/>
                </mxCell>
                <mxCell id="127" value="&lt;div style=&quot;font-size: 16px&quot;&gt;&lt;div style=&quot;font-size: 16px&quot;&gt;&lt;div style=&quot;font-size: 16px&quot;&gt;&lt;div style=&quot;font-size: 16px&quot;&gt;&lt;div style=&quot;font-size: 16px&quot;&gt;僚&lt;br&gt;&lt;/div&gt;&lt;/div&gt;&lt;/div&gt;&lt;/div&gt;&lt;div style=&quot;font-size: 16px&quot;&gt;&lt;/div&gt;&lt;/div&gt;" style="rounded=1;whiteSpace=wrap;html=1;fillColor=#E6E6E6;fontColor=#000000;fontSize=16;strokeColor=none;strokeWidth=2;" vertex="1" parent="3">
                    <mxGeometry x="366" y="1110" width="50" height="30" as="geometry"/>
                </mxCell>
                <mxCell id="129" value="&lt;font color=&quot;#ffff00&quot;&gt;20&lt;/font&gt;" style="ellipse;whiteSpace=wrap;html=1;aspect=fixed;fontFamily=Helvetica;fontSize=10;fontColor=#ffffff;fillColor=#a20025;strokeColor=#6F0000;" vertex="1" parent="3">
                    <mxGeometry x="37" y="1116.25" width="19.5" height="19.5" as="geometry"/>
                </mxCell>
                <mxCell id="141" style="edgeStyle=orthogonalEdgeStyle;shape=connector;rounded=1;html=1;exitX=0.5;exitY=1;exitDx=0;exitDy=0;entryX=0.5;entryY=0;entryDx=0;entryDy=0;labelBackgroundColor=default;fontFamily=Helvetica;fontSize=16;fontColor=#000000;endArrow=blockThin;endFill=1;strokeColor=#000000;strokeWidth=1;" edge="1" parent="3" source="130" target="140">
                    <mxGeometry relative="1" as="geometry"/>
                </mxCell>
                <mxCell id="130" value="&lt;div style=&quot;font-size: 16px&quot;&gt;&lt;div style=&quot;font-size: 16px&quot;&gt;&lt;div style=&quot;font-size: 16px&quot;&gt;&lt;div style=&quot;font-size: 16px&quot;&gt;&lt;div style=&quot;font-size: 16px&quot;&gt;光&lt;br&gt;&lt;/div&gt;&lt;/div&gt;&lt;/div&gt;&lt;/div&gt;&lt;div style=&quot;font-size: 16px&quot;&gt;&lt;/div&gt;&lt;/div&gt;" style="rounded=1;whiteSpace=wrap;html=1;fillColor=#E6E6E6;fontColor=#000000;fontSize=16;strokeColor=none;strokeWidth=2;" vertex="1" parent="3">
                    <mxGeometry x="57" y="1111" width="50" height="30" as="geometry"/>
                </mxCell>
                <mxCell id="132" value="&lt;div style=&quot;font-size: 14px&quot;&gt;&lt;div style=&quot;font-size: 14px&quot;&gt;&lt;div style=&quot;font-size: 14px&quot;&gt;&lt;div style=&quot;font-size: 14px&quot;&gt;&lt;div style=&quot;font-size: 14px&quot;&gt;&lt;div style=&quot;font-size: 14px&quot;&gt;阖闾&lt;/div&gt;&lt;/div&gt;&lt;/div&gt;&lt;/div&gt;&lt;/div&gt;&lt;/div&gt;" style="text;html=1;align=center;verticalAlign=middle;resizable=0;points=[];autosize=1;strokeColor=none;fillColor=none;fontSize=14;fontColor=#000000;" vertex="1" parent="3">
                    <mxGeometry x="105.75" y="1115.75" width="40" height="20" as="geometry"/>
                </mxCell>
                <mxCell id="133" value="&lt;div style=&quot;font-size: 16px&quot;&gt;&lt;div style=&quot;font-size: 16px&quot;&gt;&lt;div style=&quot;font-size: 16px&quot;&gt;&lt;div style=&quot;font-size: 16px&quot;&gt;&lt;div style=&quot;font-size: 16px&quot;&gt;掩馀&lt;br&gt;&lt;/div&gt;&lt;/div&gt;&lt;/div&gt;&lt;/div&gt;&lt;div style=&quot;font-size: 16px&quot;&gt;&lt;/div&gt;&lt;/div&gt;" style="rounded=1;whiteSpace=wrap;html=1;fillColor=#E6E6E6;fontColor=#000000;fontSize=16;strokeColor=none;strokeWidth=2;" vertex="1" parent="3">
                    <mxGeometry x="149" y="1111" width="50" height="30" as="geometry"/>
                </mxCell>
                <mxCell id="134" value="&lt;div style=&quot;font-size: 16px&quot;&gt;&lt;div style=&quot;font-size: 16px&quot;&gt;&lt;div style=&quot;font-size: 16px&quot;&gt;&lt;div style=&quot;font-size: 16px&quot;&gt;&lt;div style=&quot;font-size: 16px&quot;&gt;烛庸&lt;br&gt;&lt;/div&gt;&lt;/div&gt;&lt;/div&gt;&lt;/div&gt;&lt;div style=&quot;font-size: 16px&quot;&gt;&lt;/div&gt;&lt;/div&gt;" style="rounded=1;whiteSpace=wrap;html=1;fillColor=#E6E6E6;fontColor=#000000;fontSize=16;strokeColor=none;strokeWidth=2;" vertex="1" parent="3">
                    <mxGeometry x="208" y="1111" width="50" height="30" as="geometry"/>
                </mxCell>
                <mxCell id="137" value="&lt;div style=&quot;font-size: 16px&quot;&gt;&lt;div style=&quot;font-size: 16px&quot;&gt;&lt;div style=&quot;font-size: 16px&quot;&gt;&lt;div style=&quot;font-size: 16px&quot;&gt;&lt;div style=&quot;font-size: 16px&quot;&gt;夫槩&lt;br&gt;&lt;/div&gt;&lt;/div&gt;&lt;/div&gt;&lt;/div&gt;&lt;div style=&quot;font-size: 16px&quot;&gt;&lt;/div&gt;&lt;/div&gt;" style="rounded=1;whiteSpace=wrap;html=1;fillColor=#E6E6E6;fontColor=#000000;fontSize=16;strokeColor=none;strokeWidth=2;" vertex="1" parent="3">
                    <mxGeometry x="270" y="1111" width="50" height="30" as="geometry"/>
                </mxCell>
                <mxCell id="139" value="&lt;font color=&quot;#ffff00&quot;&gt;21&lt;/font&gt;" style="ellipse;whiteSpace=wrap;html=1;aspect=fixed;fontFamily=Helvetica;fontSize=10;fontColor=#ffffff;fillColor=#a20025;strokeColor=#6F0000;" vertex="1" parent="3">
                    <mxGeometry x="37" y="1175.25" width="19.5" height="19.5" as="geometry"/>
                </mxCell>
                <mxCell id="140" value="&lt;div style=&quot;font-size: 16px&quot;&gt;&lt;div style=&quot;font-size: 16px&quot;&gt;&lt;div style=&quot;font-size: 16px&quot;&gt;&lt;div style=&quot;font-size: 16px&quot;&gt;&lt;div style=&quot;font-size: 16px&quot;&gt;夫差&lt;br&gt;&lt;/div&gt;&lt;/div&gt;&lt;/div&gt;&lt;/div&gt;&lt;div style=&quot;font-size: 16px&quot;&gt;&lt;/div&gt;&lt;/div&gt;" style="rounded=1;whiteSpace=wrap;html=1;fillColor=#E6E6E6;fontColor=#000000;fontSize=16;strokeColor=none;strokeWidth=2;" vertex="1" parent="3">
                    <mxGeometry x="57" y="1170" width="50" height="30" as="geometry"/>
                </mxCell>
            </root>
        </mxGraphModel>
    </diagram>
</mxfile>